<?xml version="1.0" encoding="UTF-8" standalone="no"?>
<!DOCTYPE svg PUBLIC "-//W3C//DTD SVG 1.1//EN"
 "http://www.w3.org/Graphics/SVG/1.1/DTD/svg11.dtd">
<!-- Generated by graphviz version 2.40.1 (20161225.0304)
 -->
<!-- Title: dependency&#45;cruiser output Pages: 1 -->
<svg width="768pt" height="215pt"
 viewBox="0.00 0.00 768.15 215.00" xmlns="http://www.w3.org/2000/svg" xmlns:xlink="http://www.w3.org/1999/xlink">
<g id="graph0" class="graph" transform="scale(1 1) rotate(0) translate(4 211)">
<title>dependency&#45;cruiser output</title>
<polygon fill="#ffffff" stroke="transparent" points="-4,4 -4,-211 764.1504,-211 764.1504,4 -4,4"/>
<g id="clust1" class="cluster">
<title>cluster_src</title>
<path fill="#ffffff" stroke="#000000" stroke-width="2" d="M20,-8C20,-8 740.1504,-8 740.1504,-8 746.1504,-8 752.1504,-14 752.1504,-20 752.1504,-20 752.1504,-187 752.1504,-187 752.1504,-193 746.1504,-199 740.1504,-199 740.1504,-199 20,-199 20,-199 14,-199 8,-193 8,-187 8,-187 8,-20 8,-20 8,-14 14,-8 20,-8"/>
<text text-anchor="middle" x="380.0752" y="-187.8" font-family="Helvetica,sans-Serif" font-weight="bold" font-size="9.00" fill="#000000">src</text>
</g>
<g id="clust2" class="cluster">
<title>cluster_src/services</title>
<path fill="#ffffff" stroke="#000000" stroke-width="2" d="M90,-26C90,-26 241.0518,-26 241.0518,-26 247.0518,-26 253.0518,-32 253.0518,-38 253.0518,-38 253.0518,-152 253.0518,-152 253.0518,-158 247.0518,-164 241.0518,-164 241.0518,-164 90,-164 90,-164 84,-164 78,-158 78,-152 78,-152 78,-38 78,-38 78,-32 84,-26 90,-26"/>
<text text-anchor="middle" x="165.5259" y="-152.8" font-family="Helvetica,sans-Serif" font-weight="bold" font-size="9.00" fill="#000000">services</text>
</g>
<!-- src/barkeep.ts -->
<g id="node1" class="node">
<title>src/barkeep.ts</title>
<g id="a_node1"><a xlink:href="src/barkeep.ts" xlink:title="barkeep.ts">
<path fill="#ddfeff" stroke="#000000" d="M380.4225,-105.5C380.4225,-105.5 333.706,-105.5 333.706,-105.5 330.8726,-105.5 328.0393,-102.6667 328.0393,-99.8333 328.0393,-99.8333 328.0393,-94.1667 328.0393,-94.1667 328.0393,-91.3333 330.8726,-88.5 333.706,-88.5 333.706,-88.5 380.4225,-88.5 380.4225,-88.5 383.2558,-88.5 386.0891,-91.3333 386.0891,-94.1667 386.0891,-94.1667 386.0891,-99.8333 386.0891,-99.8333 386.0891,-102.6667 383.2558,-105.5 380.4225,-105.5"/>
<text text-anchor="middle" x="357.0642" y="-94.3" font-family="Helvetica,sans-Serif" font-size="9.00" fill="#000000">barkeep.ts</text>
</a>
</g>
</g>
<!-- src/error.ts -->
<g id="node2" class="node">
<title>src/error.ts</title>
<g id="a_node2"><a xlink:href="src/error.ts" xlink:title="error.ts">
<path fill="#ddfeff" stroke="#000000" d="M593.1993,-109.5C593.1993,-109.5 550.5326,-109.5 550.5326,-109.5 547.6993,-109.5 544.866,-106.6667 544.866,-103.8333 544.866,-103.8333 544.866,-98.1667 544.866,-98.1667 544.866,-95.3333 547.6993,-92.5 550.5326,-92.5 550.5326,-92.5 593.1993,-92.5 593.1993,-92.5 596.0326,-92.5 598.866,-95.3333 598.866,-98.1667 598.866,-98.1667 598.866,-103.8333 598.866,-103.8333 598.866,-106.6667 596.0326,-109.5 593.1993,-109.5"/>
<text text-anchor="middle" x="571.866" y="-98.3" font-family="Helvetica,sans-Serif" font-size="9.00" fill="#000000">error.ts</text>
</a>
</g>
</g>
<!-- src/barkeep.ts&#45;&gt;src/error.ts -->
<g id="edge1" class="edge">
<title>src/barkeep.ts&#45;&gt;src/error.ts</title>
<path fill="none" stroke="#000000" stroke-width="2" stroke-opacity="0.466667" d="M386.4811,-97.5478C425.0372,-98.2658 492.6851,-99.5255 534.7301,-100.3085"/>
<polygon fill="#000000" fill-opacity="0.466667" stroke="#000000" stroke-width="2" stroke-opacity="0.466667" points="534.7711,-103.8097 544.8346,-100.4966 534.9015,-96.8109 534.7711,-103.8097"/>
</g>
<!-- src/registrar.ts -->
<g id="node6" class="node">
<title>src/registrar.ts</title>
<g id="a_node6"><a xlink:href="src/registrar.ts" xlink:title="registrar.ts">
<path fill="#ddfeff" stroke="#000000" d="M451.4342,-63.5C451.4342,-63.5 404.7353,-63.5 404.7353,-63.5 401.9019,-63.5 399.0686,-60.6667 399.0686,-57.8333 399.0686,-57.8333 399.0686,-52.1667 399.0686,-52.1667 399.0686,-49.3333 401.9019,-46.5 404.7353,-46.5 404.7353,-46.5 451.4342,-46.5 451.4342,-46.5 454.2675,-46.5 457.1008,-49.3333 457.1008,-52.1667 457.1008,-52.1667 457.1008,-57.8333 457.1008,-57.8333 457.1008,-60.6667 454.2675,-63.5 451.4342,-63.5"/>
<text text-anchor="middle" x="428.0847" y="-52.3" font-family="Helvetica,sans-Serif" font-size="9.00" fill="#000000">registrar.ts</text>
</a>
</g>
</g>
<!-- src/barkeep.ts&#45;&gt;src/registrar.ts -->
<g id="edge2" class="edge">
<title>src/barkeep.ts&#45;&gt;src/registrar.ts</title>
<path fill="none" stroke="#000000" stroke-width="2" stroke-opacity="0.466667" d="M371.7797,-88.2976C381.3023,-82.6661 393.9052,-75.213 404.773,-68.7861"/>
<polygon fill="#000000" fill-opacity="0.466667" stroke="#000000" stroke-width="2" stroke-opacity="0.466667" points="406.5622,-71.7942 413.3881,-63.6913 402.9989,-65.769 406.5622,-71.7942"/>
</g>
<!-- src/matcher.ts -->
<g id="node4" class="node">
<title>src/matcher.ts</title>
<g id="a_node4"><a xlink:href="src/matcher.ts" xlink:title="matcher.ts">
<path fill="#ddfeff" stroke="#000000" d="M671.2455,-87.5C671.2455,-87.5 625.5358,-87.5 625.5358,-87.5 622.7024,-87.5 619.8691,-84.6667 619.8691,-81.8333 619.8691,-81.8333 619.8691,-76.1667 619.8691,-76.1667 619.8691,-73.3333 622.7024,-70.5 625.5358,-70.5 625.5358,-70.5 671.2455,-70.5 671.2455,-70.5 674.0788,-70.5 676.9121,-73.3333 676.9121,-76.1667 676.9121,-76.1667 676.9121,-81.8333 676.9121,-81.8333 676.9121,-84.6667 674.0788,-87.5 671.2455,-87.5"/>
<text text-anchor="middle" x="648.3906" y="-76.3" font-family="Helvetica,sans-Serif" font-size="9.00" fill="#000000">matcher.ts</text>
</a>
</g>
</g>
<!-- src/error.ts&#45;&gt;src/matcher.ts -->
<g id="edge3" class="edge">
<title>src/error.ts&#45;&gt;src/matcher.ts</title>
<path fill="none" stroke="#000000" stroke-width="2" stroke-opacity="0.466667" d="M599.0612,-93.1817C602.6215,-92.1581 606.3216,-91.0944 610.0231,-90.0302"/>
<polygon fill="#000000" fill-opacity="0.466667" stroke="#000000" stroke-width="2" stroke-opacity="0.466667" points="611.0853,-93.3667 619.729,-87.2399 609.1512,-86.6392 611.0853,-93.3667"/>
</g>
<!-- src/utils.ts -->
<g id="node15" class="node">
<title>src/utils.ts</title>
<g id="a_node15"><a xlink:href="src/utils.ts" xlink:title="utils.ts">
<path fill="#ddfeff" stroke="#000000" d="M738.4837,-71.5C738.4837,-71.5 695.8171,-71.5 695.8171,-71.5 692.9837,-71.5 690.1504,-68.6667 690.1504,-65.8333 690.1504,-65.8333 690.1504,-60.1667 690.1504,-60.1667 690.1504,-57.3333 692.9837,-54.5 695.8171,-54.5 695.8171,-54.5 738.4837,-54.5 738.4837,-54.5 741.3171,-54.5 744.1504,-57.3333 744.1504,-60.1667 744.1504,-60.1667 744.1504,-65.8333 744.1504,-65.8333 744.1504,-68.6667 741.3171,-71.5 738.4837,-71.5"/>
<text text-anchor="middle" x="717.1504" y="-60.3" font-family="Helvetica,sans-Serif" font-size="9.00" fill="#000000">utils.ts</text>
</a>
</g>
</g>
<!-- src/error.ts&#45;&gt;src/utils.ts -->
<g id="edge4" class="edge">
<title>src/error.ts&#45;&gt;src/utils.ts</title>
<path fill="none" stroke="#000000" stroke-width="2" stroke-opacity="0.466667" d="M599.181,-103.4719C620.9968,-104.4474 651.975,-103.5581 677.1504,-94 686.0444,-90.6233 694.5708,-84.557 701.4494,-78.6805"/>
<polygon fill="#000000" fill-opacity="0.466667" stroke="#000000" stroke-width="2" stroke-opacity="0.466667" points="704.2008,-80.9046 709.1846,-71.5551 699.4582,-75.756 704.2008,-80.9046"/>
</g>
<!-- src/index.ts -->
<g id="node3" class="node">
<title>src/index.ts</title>
<g id="a_node3"><a xlink:href="src/index.ts" xlink:title="index.ts">
<path fill="#ddfeff" stroke="#000000" d="M64.3333,-94.5C64.3333,-94.5 21.6667,-94.5 21.6667,-94.5 18.8333,-94.5 16,-91.6667 16,-88.8333 16,-88.8333 16,-83.1667 16,-83.1667 16,-80.3333 18.8333,-77.5 21.6667,-77.5 21.6667,-77.5 64.3333,-77.5 64.3333,-77.5 67.1667,-77.5 70,-80.3333 70,-83.1667 70,-83.1667 70,-88.8333 70,-88.8333 70,-91.6667 67.1667,-94.5 64.3333,-94.5"/>
<text text-anchor="middle" x="43" y="-83.3" font-family="Helvetica,sans-Serif" font-size="9.00" fill="#000000">index.ts</text>
</a>
</g>
</g>
<!-- src/services/index.ts -->
<g id="node9" class="node">
<title>src/services/index.ts</title>
<g id="a_node9"><a xlink:href="src/services/index.ts" xlink:title="index.ts">
<path fill="#ddfeff" stroke="#000000" d="M134.3333,-94.5C134.3333,-94.5 91.6667,-94.5 91.6667,-94.5 88.8333,-94.5 86,-91.6667 86,-88.8333 86,-88.8333 86,-83.1667 86,-83.1667 86,-80.3333 88.8333,-77.5 91.6667,-77.5 91.6667,-77.5 134.3333,-77.5 134.3333,-77.5 137.1667,-77.5 140,-80.3333 140,-83.1667 140,-83.1667 140,-88.8333 140,-88.8333 140,-91.6667 137.1667,-94.5 134.3333,-94.5"/>
<text text-anchor="middle" x="113" y="-83.3" font-family="Helvetica,sans-Serif" font-size="9.00" fill="#000000">index.ts</text>
</a>
</g>
</g>
<!-- src/index.ts&#45;&gt;src/services/index.ts -->
<g id="edge5" class="edge">
<title>src/index.ts&#45;&gt;src/services/index.ts</title>
<path fill="none" stroke="#000000" stroke-width="2" stroke-opacity="0.466667" d="M70.2643,-86C72.0061,-86 73.7749,-86 75.5522,-86"/>
<polygon fill="#000000" fill-opacity="0.466667" stroke="#000000" stroke-width="2" stroke-opacity="0.466667" points="75.695,-89.5001 85.695,-86 75.695,-82.5001 75.695,-89.5001"/>
</g>
<!-- src/tavern.ts -->
<g id="node13" class="node">
<title>src/tavern.ts</title>
<g id="a_node13"><a xlink:href="src/tavern.ts" xlink:title="tavern.ts">
<path fill="#ddfeff" stroke="#000000" d="M309.3851,-118.5C309.3851,-118.5 266.7184,-118.5 266.7184,-118.5 263.8851,-118.5 261.0518,-115.6667 261.0518,-112.8333 261.0518,-112.8333 261.0518,-107.1667 261.0518,-107.1667 261.0518,-104.3333 263.8851,-101.5 266.7184,-101.5 266.7184,-101.5 309.3851,-101.5 309.3851,-101.5 312.2184,-101.5 315.0518,-104.3333 315.0518,-107.1667 315.0518,-107.1667 315.0518,-112.8333 315.0518,-112.8333 315.0518,-115.6667 312.2184,-118.5 309.3851,-118.5"/>
<text text-anchor="middle" x="288.0518" y="-107.3" font-family="Helvetica,sans-Serif" font-size="9.00" fill="#000000">tavern.ts</text>
</a>
</g>
</g>
<!-- src/index.ts&#45;&gt;src/tavern.ts -->
<g id="edge6" class="edge">
<title>src/index.ts&#45;&gt;src/tavern.ts</title>
<path fill="none" stroke="#000000" stroke-width="2" stroke-opacity="0.466667" d="M43.7317,-94.545C45.7222,-111.7889 52.9089,-150.5085 78,-167 143.015,-209.7319 185.1538,-204.9847 253.0518,-167 267.7656,-158.7685 277.0475,-141.54 282.3261,-128.1672"/>
<polygon fill="#000000" fill-opacity="0.466667" stroke="#000000" stroke-width="2" stroke-opacity="0.466667" points="285.705,-129.1094 285.7285,-118.5146 279.1031,-126.7823 285.705,-129.1094"/>
</g>
<!-- src/types.ts -->
<g id="node14" class="node">
<title>src/types.ts</title>
<g id="a_node14"><a xlink:href="src/types.ts" xlink:title="types.ts">
<path fill="#ddfeff" stroke="#000000" d="M309.3851,-40.5C309.3851,-40.5 266.7184,-40.5 266.7184,-40.5 263.8851,-40.5 261.0518,-37.6667 261.0518,-34.8333 261.0518,-34.8333 261.0518,-29.1667 261.0518,-29.1667 261.0518,-26.3333 263.8851,-23.5 266.7184,-23.5 266.7184,-23.5 309.3851,-23.5 309.3851,-23.5 312.2184,-23.5 315.0518,-26.3333 315.0518,-29.1667 315.0518,-29.1667 315.0518,-34.8333 315.0518,-34.8333 315.0518,-37.6667 312.2184,-40.5 309.3851,-40.5"/>
<text text-anchor="middle" x="288.0518" y="-29.3" font-family="Helvetica,sans-Serif" font-size="9.00" fill="#000000">types.ts</text>
</a>
</g>
</g>
<!-- src/index.ts&#45;&gt;src/types.ts -->
<g id="edge7" class="edge">
<title>src/index.ts&#45;&gt;src/types.ts</title>
<path fill="none" stroke="#000000" stroke-width="2" stroke-opacity="0.466667" d="M44.9205,-77.0921C48.5546,-62.7115 57.9422,-34.8021 78,-23 133.3066,9.5426 211.7138,-6.856 255.4099,-20.3234"/>
<polygon fill="#000000" fill-opacity="0.466667" stroke="#000000" stroke-width="2" stroke-opacity="0.466667" points="254.3706,-23.6657 264.9619,-23.3927 256.5121,-17.0012 254.3706,-23.6657"/>
</g>
<!-- src/matcher.ts&#45;&gt;src/utils.ts -->
<g id="edge8" class="edge">
<title>src/matcher.ts&#45;&gt;src/utils.ts</title>
<path fill="none" stroke="#000000" stroke-width="2" stroke-opacity="0.466667" d="M677.1526,-72.3073C678.0864,-72.09 679.0259,-71.8714 679.9682,-71.6521"/>
<polygon fill="#000000" fill-opacity="0.466667" stroke="#000000" stroke-width="2" stroke-opacity="0.466667" points="681.096,-74.9832 690.0426,-69.3078 679.5095,-68.1654 681.096,-74.9832"/>
</g>
<!-- src/messenger.ts -->
<g id="node5" class="node">
<title>src/messenger.ts</title>
<g id="a_node5"><a xlink:href="src/messenger.ts" xlink:title="messenger.ts">
<path fill="#ddfeff" stroke="#000000" d="M600.7307,-33.5C600.7307,-33.5 543.0013,-33.5 543.0013,-33.5 540.1679,-33.5 537.3346,-30.6667 537.3346,-27.8333 537.3346,-27.8333 537.3346,-22.1667 537.3346,-22.1667 537.3346,-19.3333 540.1679,-16.5 543.0013,-16.5 543.0013,-16.5 600.7307,-16.5 600.7307,-16.5 603.564,-16.5 606.3973,-19.3333 606.3973,-22.1667 606.3973,-22.1667 606.3973,-27.8333 606.3973,-27.8333 606.3973,-30.6667 603.564,-33.5 600.7307,-33.5"/>
<text text-anchor="middle" x="571.866" y="-22.3" font-family="Helvetica,sans-Serif" font-size="9.00" fill="#000000">messenger.ts</text>
</a>
</g>
</g>
<!-- src/messenger.ts&#45;&gt;src/utils.ts -->
<g id="edge9" class="edge">
<title>src/messenger.ts&#45;&gt;src/utils.ts</title>
<path fill="none" stroke="#000000" stroke-width="2" stroke-opacity="0.466667" d="M606.625,-28.3364C627.4487,-30.9727 654.2408,-35.4972 677.1504,-43 682.592,-44.7821 688.2181,-47.1973 693.4707,-49.7329"/>
<polygon fill="#000000" fill-opacity="0.466667" stroke="#000000" stroke-width="2" stroke-opacity="0.466667" points="691.9067,-52.8642 702.4016,-54.3163 695.1028,-46.6364 691.9067,-52.8642"/>
</g>
<!-- src/registrar.ts&#45;&gt;src/matcher.ts -->
<g id="edge10" class="edge">
<title>src/registrar.ts&#45;&gt;src/matcher.ts</title>
<path fill="none" stroke="#000000" stroke-width="2" stroke-opacity="0.466667" d="M457.3396,-58.187C496.4828,-62.4513 566.0009,-70.0245 609.5136,-74.7648"/>
<polygon fill="#000000" fill-opacity="0.466667" stroke="#000000" stroke-width="2" stroke-opacity="0.466667" points="609.3946,-78.2724 619.7148,-75.8761 610.1527,-71.3136 609.3946,-78.2724"/>
</g>
<!-- src/service.ts -->
<g id="node7" class="node">
<title>src/service.ts</title>
<g id="a_node7"><a xlink:href="src/service.ts" xlink:title="service.ts">
<path fill="#ddfeff" stroke="#000000" d="M518.4386,-91.5C518.4386,-91.5 475.7553,-91.5 475.7553,-91.5 472.922,-91.5 470.0886,-88.6667 470.0886,-85.8333 470.0886,-85.8333 470.0886,-80.1667 470.0886,-80.1667 470.0886,-77.3333 472.922,-74.5 475.7553,-74.5 475.7553,-74.5 518.4386,-74.5 518.4386,-74.5 521.2719,-74.5 524.1052,-77.3333 524.1052,-80.1667 524.1052,-80.1667 524.1052,-85.8333 524.1052,-85.8333 524.1052,-88.6667 521.2719,-91.5 518.4386,-91.5"/>
<text text-anchor="middle" x="497.0969" y="-80.3" font-family="Helvetica,sans-Serif" font-size="9.00" fill="#000000">service.ts</text>
</a>
</g>
</g>
<!-- src/registrar.ts&#45;&gt;src/service.ts -->
<g id="edge11" class="edge">
<title>src/registrar.ts&#45;&gt;src/service.ts</title>
<path fill="none" stroke="#000000" stroke-width="2" stroke-opacity="0.466667" d="M449.1656,-63.5531C454.6507,-65.7785 460.672,-68.2215 466.5389,-70.6019"/>
<polygon fill="#000000" fill-opacity="0.466667" stroke="#000000" stroke-width="2" stroke-opacity="0.466667" points="465.5628,-73.9829 476.1451,-74.4993 468.1946,-67.4964 465.5628,-73.9829"/>
</g>
<!-- src/registrar.ts&#45;&gt;src/utils.ts -->
<g id="edge12" class="edge">
<title>src/registrar.ts&#45;&gt;src/utils.ts</title>
<path fill="none" stroke="#000000" stroke-width="2" stroke-opacity="0.466667" d="M457.504,-55.1098C476.5084,-55.2293 501.7688,-55.4789 524.1011,-56 578.1931,-57.2622 640.7779,-59.7136 679.6682,-61.354"/>
<polygon fill="#000000" fill-opacity="0.466667" stroke="#000000" stroke-width="2" stroke-opacity="0.466667" points="679.8422,-64.8645 689.9821,-61.7936 680.1403,-57.8709 679.8422,-64.8645"/>
</g>
<!-- src/service.ts&#45;&gt;src/error.ts -->
<g id="edge13" class="edge">
<title>src/service.ts&#45;&gt;src/error.ts</title>
<path fill="none" stroke="#000000" stroke-width="2" stroke-opacity="0.466667" d="M524.5136,-89.6003C527.909,-90.4177 531.4228,-91.2637 534.9313,-92.1083"/>
<polygon fill="#000000" fill-opacity="0.466667" stroke="#000000" stroke-width="2" stroke-opacity="0.466667" points="534.161,-95.5228 544.7025,-94.4606 535.7994,-88.7172 534.161,-95.5228"/>
</g>
<!-- src/service.ts&#45;&gt;src/matcher.ts -->
<g id="edge14" class="edge">
<title>src/service.ts&#45;&gt;src/matcher.ts</title>
<path fill="none" stroke="#000000" stroke-width="2" stroke-opacity="0.466667" d="M524.1452,-82.2849C547.9312,-81.656 582.834,-80.7332 609.5949,-80.0257"/>
<polygon fill="#000000" fill-opacity="0.466667" stroke="#000000" stroke-width="2" stroke-opacity="0.466667" points="609.8725,-83.5197 619.7764,-79.7565 609.6874,-76.5221 609.8725,-83.5197"/>
</g>
<!-- src/service.ts&#45;&gt;src/messenger.ts -->
<g id="edge15" class="edge">
<title>src/service.ts&#45;&gt;src/messenger.ts</title>
<path fill="none" stroke="#000000" stroke-width="2" stroke-opacity="0.466667" d="M508.1294,-74.4419C519.836,-65.3608 538.557,-50.8385 552.6872,-39.8774"/>
<polygon fill="#000000" fill-opacity="0.466667" stroke="#000000" stroke-width="2" stroke-opacity="0.466667" points="555.0321,-42.488 560.7883,-33.5932 550.7416,-36.957 555.0321,-42.488"/>
</g>
<!-- src/services/express_adapter.ts -->
<g id="node8" class="node">
<title>src/services/express_adapter.ts</title>
<g id="a_node8"><a xlink:href="src/services/express_adapter.ts" xlink:title="express_adapter.ts">
<path fill="#ddfeff" stroke="#000000" d="M239.411,-51.5C239.411,-51.5 158.6408,-51.5 158.6408,-51.5 155.8074,-51.5 152.9741,-48.6667 152.9741,-45.8333 152.9741,-45.8333 152.9741,-40.1667 152.9741,-40.1667 152.9741,-37.3333 155.8074,-34.5 158.6408,-34.5 158.6408,-34.5 239.411,-34.5 239.411,-34.5 242.2443,-34.5 245.0777,-37.3333 245.0777,-40.1667 245.0777,-40.1667 245.0777,-45.8333 245.0777,-45.8333 245.0777,-48.6667 242.2443,-51.5 239.411,-51.5"/>
<text text-anchor="middle" x="199.0259" y="-40.3" font-family="Helvetica,sans-Serif" font-size="9.00" fill="#000000">express_adapter.ts</text>
</a>
</g>
</g>
<!-- src/services/express_adapter.ts&#45;&gt;src/tavern.ts -->
<g id="edge16" class="edge">
<title>src/services/express_adapter.ts&#45;&gt;src/tavern.ts</title>
<path fill="none" stroke="#000000" stroke-width="2" stroke-opacity="0.466667" d="M241.3887,-51.552C245.5248,-53.314 249.4984,-55.4385 253.0518,-58 265.0684,-66.6625 274.2017,-80.8154 280.1204,-92.1705"/>
<polygon fill="#000000" fill-opacity="0.466667" stroke="#000000" stroke-width="2" stroke-opacity="0.466667" points="276.9888,-93.7344 284.4858,-101.2207 283.2937,-90.6931 276.9888,-93.7344"/>
</g>
<!-- src/services/index.ts&#45;&gt;src/services/express_adapter.ts -->
<g id="edge17" class="edge">
<title>src/services/index.ts&#45;&gt;src/services/express_adapter.ts</title>
<path fill="none" stroke="#000000" stroke-width="2" stroke-opacity="0.466667" d="M134.7488,-77.4511C136.5914,-76.3976 138.3707,-75.2472 140,-74 147.2755,-68.4306 145.447,-63.1868 153,-58 153.9006,-57.3815 154.8285,-56.7872 155.7785,-56.2161"/>
<polygon fill="#000000" fill-opacity="0.466667" stroke="#000000" stroke-width="2" stroke-opacity="0.466667" points="157.4293,-59.3036 164.7885,-51.6818 154.2825,-53.0507 157.4293,-59.3036"/>
</g>
<!-- src/services/logger.ts -->
<g id="node10" class="node">
<title>src/services/logger.ts</title>
<g id="a_node10"><a xlink:href="src/services/logger.ts" xlink:title="logger.ts">
<path fill="#ddfeff" stroke="#000000" d="M220.3592,-80.5C220.3592,-80.5 177.6925,-80.5 177.6925,-80.5 174.8592,-80.5 172.0259,-77.6667 172.0259,-74.8333 172.0259,-74.8333 172.0259,-69.1667 172.0259,-69.1667 172.0259,-66.3333 174.8592,-63.5 177.6925,-63.5 177.6925,-63.5 220.3592,-63.5 220.3592,-63.5 223.1925,-63.5 226.0259,-66.3333 226.0259,-69.1667 226.0259,-69.1667 226.0259,-74.8333 226.0259,-74.8333 226.0259,-77.6667 223.1925,-80.5 220.3592,-80.5"/>
<text text-anchor="middle" x="199.0259" y="-69.3" font-family="Helvetica,sans-Serif" font-size="9.00" fill="#000000">logger.ts</text>
</a>
</g>
</g>
<!-- src/services/index.ts&#45;&gt;src/services/logger.ts -->
<g id="edge18" class="edge">
<title>src/services/index.ts&#45;&gt;src/services/logger.ts</title>
<path fill="none" stroke="#000000" stroke-width="2" stroke-opacity="0.466667" d="M140.2191,-81.5703C147.1113,-80.4487 154.6318,-79.2248 161.9214,-78.0384"/>
<polygon fill="#000000" fill-opacity="0.466667" stroke="#000000" stroke-width="2" stroke-opacity="0.466667" points="162.6759,-81.4618 171.9838,-76.4009 161.5514,-74.5527 162.6759,-81.4618"/>
</g>
<!-- src/services/parser.ts -->
<g id="node11" class="node">
<title>src/services/parser.ts</title>
<g id="a_node11"><a xlink:href="src/services/parser.ts" xlink:title="parser.ts">
<path fill="#ddfeff" stroke="#000000" d="M220.3592,-109.5C220.3592,-109.5 177.6925,-109.5 177.6925,-109.5 174.8592,-109.5 172.0259,-106.6667 172.0259,-103.8333 172.0259,-103.8333 172.0259,-98.1667 172.0259,-98.1667 172.0259,-95.3333 174.8592,-92.5 177.6925,-92.5 177.6925,-92.5 220.3592,-92.5 220.3592,-92.5 223.1925,-92.5 226.0259,-95.3333 226.0259,-98.1667 226.0259,-98.1667 226.0259,-103.8333 226.0259,-103.8333 226.0259,-106.6667 223.1925,-109.5 220.3592,-109.5"/>
<text text-anchor="middle" x="199.0259" y="-98.3" font-family="Helvetica,sans-Serif" font-size="9.00" fill="#000000">parser.ts</text>
</a>
</g>
</g>
<!-- src/services/index.ts&#45;&gt;src/services/parser.ts -->
<g id="edge19" class="edge">
<title>src/services/index.ts&#45;&gt;src/services/parser.ts</title>
<path fill="none" stroke="#000000" stroke-width="2" stroke-opacity="0.466667" d="M140.2191,-90.7461C147.1113,-91.9479 154.6318,-93.2592 161.9214,-94.5302"/>
<polygon fill="#000000" fill-opacity="0.466667" stroke="#000000" stroke-width="2" stroke-opacity="0.466667" points="161.5312,-98.0149 171.9838,-96.2848 162.7337,-91.119 161.5312,-98.0149"/>
</g>
<!-- src/services/request_handler.ts -->
<g id="node12" class="node">
<title>src/services/request_handler.ts</title>
<g id="a_node12"><a xlink:href="src/services/request_handler.ts" xlink:title="request_handler.ts">
<path fill="#ddfeff" stroke="#000000" d="M238.4159,-138.5C238.4159,-138.5 159.6359,-138.5 159.6359,-138.5 156.8026,-138.5 153.9692,-135.6667 153.9692,-132.8333 153.9692,-132.8333 153.9692,-127.1667 153.9692,-127.1667 153.9692,-124.3333 156.8026,-121.5 159.6359,-121.5 159.6359,-121.5 238.4159,-121.5 238.4159,-121.5 241.2492,-121.5 244.0825,-124.3333 244.0825,-127.1667 244.0825,-127.1667 244.0825,-132.8333 244.0825,-132.8333 244.0825,-135.6667 241.2492,-138.5 238.4159,-138.5"/>
<text text-anchor="middle" x="199.0259" y="-127.3" font-family="Helvetica,sans-Serif" font-size="9.00" fill="#000000">request_handler.ts</text>
</a>
</g>
</g>
<!-- src/services/index.ts&#45;&gt;src/services/request_handler.ts -->
<g id="edge20" class="edge">
<title>src/services/index.ts&#45;&gt;src/services/request_handler.ts</title>
<path fill="none" stroke="#000000" stroke-width="2" stroke-opacity="0.466667" d="M133.3939,-94.5155C135.7236,-95.8609 137.9828,-97.3576 140,-99 147.3759,-105.0054 145.1855,-110.5776 153,-116 153.2831,-116.1964 153.5689,-116.3901 153.8575,-116.5812"/>
<polygon fill="#000000" fill-opacity="0.466667" stroke="#000000" stroke-width="2" stroke-opacity="0.466667" points="152.3592,-119.7495 162.8233,-121.4088 155.6779,-113.5862 152.3592,-119.7495"/>
</g>
<!-- src/services/logger.ts&#45;&gt;src/tavern.ts -->
<g id="edge21" class="edge">
<title>src/services/logger.ts&#45;&gt;src/tavern.ts</title>
<path fill="none" stroke="#000000" stroke-width="2" stroke-opacity="0.466667" d="M226.262,-77.8008C235.0202,-80.1267 244.6311,-83.1777 253.0518,-87 258.216,-89.3441 263.4825,-92.395 268.3095,-95.5043"/>
<polygon fill="#000000" fill-opacity="0.466667" stroke="#000000" stroke-width="2" stroke-opacity="0.466667" points="266.6778,-98.6286 276.9078,-101.3851 270.6296,-92.8507 266.6778,-98.6286"/>
</g>
<!-- src/services/parser.ts&#45;&gt;src/tavern.ts -->
<g id="edge22" class="edge">
<title>src/services/parser.ts&#45;&gt;src/tavern.ts</title>
<path fill="none" stroke="#000000" stroke-width="2" stroke-opacity="0.466667" d="M226.2203,-103.7492C233.9864,-104.5343 242.5857,-105.4036 250.8405,-106.2382"/>
<polygon fill="#000000" fill-opacity="0.466667" stroke="#000000" stroke-width="2" stroke-opacity="0.466667" points="250.7225,-109.744 261.0239,-107.2676 251.4266,-102.7795 250.7225,-109.744"/>
</g>
<!-- src/services/request_handler.ts&#45;&gt;src/tavern.ts -->
<g id="edge23" class="edge">
<title>src/services/request_handler.ts&#45;&gt;src/tavern.ts</title>
<path fill="none" stroke="#000000" stroke-width="2" stroke-opacity="0.466667" d="M237.0391,-121.4602C241.6838,-120.4167 246.4251,-119.3516 251.0546,-118.3115"/>
<polygon fill="#000000" fill-opacity="0.466667" stroke="#000000" stroke-width="2" stroke-opacity="0.466667" points="251.9406,-121.6998 260.9302,-116.093 250.4062,-114.8701 251.9406,-121.6998"/>
</g>
<!-- src/tavern.ts&#45;&gt;src/barkeep.ts -->
<g id="edge24" class="edge">
<title>src/tavern.ts&#45;&gt;src/barkeep.ts</title>
<path fill="none" stroke="#000000" stroke-width="2" stroke-opacity="0.466667" d="M315.3273,-104.8621C316.0902,-104.7183 316.8581,-104.5737 317.6294,-104.4284"/>
<polygon fill="#000000" fill-opacity="0.466667" stroke="#000000" stroke-width="2" stroke-opacity="0.466667" points="318.5362,-107.8192 327.7154,-102.5285 317.2403,-100.9402 318.5362,-107.8192"/>
</g>
<!-- src/tavern.ts&#45;&gt;src/error.ts -->
<g id="edge25" class="edge">
<title>src/tavern.ts&#45;&gt;src/error.ts</title>
<path fill="none" stroke="#000000" stroke-width="2" stroke-opacity="0.466667" d="M315.1012,-114.6147C319.4208,-115.1906 323.8501,-115.6866 328.0518,-116 401.1829,-121.4543 486.762,-112.6961 534.605,-106.4372"/>
<polygon fill="#000000" fill-opacity="0.466667" stroke="#000000" stroke-width="2" stroke-opacity="0.466667" points="535.3467,-109.869 544.7909,-105.0672 534.4136,-102.9315 535.3467,-109.869"/>
</g>
<!-- src/tavern.ts&#45;&gt;src/matcher.ts -->
<g id="edge26" class="edge">
<title>src/tavern.ts&#45;&gt;src/matcher.ts</title>
<path fill="none" stroke="#000000" stroke-width="2" stroke-opacity="0.466667" d="M315.2043,-117.1513C343.2591,-123.903 388.4191,-133 428.0847,-133 428.0847,-133 428.0847,-133 497.0969,-133 546.3615,-133 562.0483,-136.9617 606.6309,-116 617.0594,-111.0968 626.8139,-102.76 634.2686,-95.24"/>
<polygon fill="#000000" fill-opacity="0.466667" stroke="#000000" stroke-width="2" stroke-opacity="0.466667" points="637.127,-97.3062 641.3782,-87.6017 632.0031,-92.5369 637.127,-97.3062"/>
</g>
<!-- src/tavern.ts&#45;&gt;src/messenger.ts -->
<g id="edge27" class="edge">
<title>src/tavern.ts&#45;&gt;src/messenger.ts</title>
<path fill="none" stroke="#000000" stroke-width="2" stroke-opacity="0.466667" d="M297.9142,-101.4968C316.333,-86.1908 357.839,-54.3544 399.0767,-41 410.959,-37.152 479.953,-31.5754 527.0808,-28.1244"/>
<polygon fill="#000000" fill-opacity="0.466667" stroke="#000000" stroke-width="2" stroke-opacity="0.466667" points="527.3496,-31.6142 537.0705,-27.4006 526.8437,-24.6325 527.3496,-31.6142"/>
</g>
<!-- src/tavern.ts&#45;&gt;src/service.ts -->
<g id="edge28" class="edge">
<title>src/tavern.ts&#45;&gt;src/service.ts</title>
<path fill="none" stroke="#000000" stroke-width="2" stroke-opacity="0.466667" d="M315.1558,-111.5387C319.4683,-111.7306 323.8812,-111.8958 328.0518,-112 353.8326,-112.6441 360.498,-115.2856 386.0767,-112 412.0038,-108.6696 440.5203,-101.1341 462.1599,-94.5794"/>
<polygon fill="#000000" fill-opacity="0.466667" stroke="#000000" stroke-width="2" stroke-opacity="0.466667" points="463.3736,-97.8675 471.886,-91.5596 461.2979,-91.1823 463.3736,-97.8675"/>
</g>
<!-- src/types.ts&#45;&gt;src/barkeep.ts -->
<g id="edge29" class="edge">
<title>src/types.ts&#45;&gt;src/barkeep.ts</title>
<path fill="none" stroke="#000000" stroke-width="2" stroke-opacity="0.466667" d="M294.1448,-40.6811C301.444,-50.6874 314.4064,-67.2597 328.0518,-79 329.5683,-80.3048 331.1891,-81.5784 332.8606,-82.8063"/>
<polygon fill="#000000" fill-opacity="0.466667" stroke="#000000" stroke-width="2" stroke-opacity="0.466667" points="331.1286,-85.8583 341.3891,-88.4989 335.0148,-80.0361 331.1286,-85.8583"/>
</g>
<!-- src/types.ts&#45;&gt;src/messenger.ts -->
<g id="edge30" class="edge">
<title>src/types.ts&#45;&gt;src/messenger.ts</title>
<path fill="none" stroke="#000000" stroke-width="2" stroke-opacity="0.466667" d="M315.4269,-31.2308C337.8979,-30.6065 370.548,-29.7156 399.0767,-29 442.436,-27.9123 491.9185,-26.7777 526.7859,-25.9959"/>
<polygon fill="#000000" fill-opacity="0.466667" stroke="#000000" stroke-width="2" stroke-opacity="0.466667" points="527.1953,-29.4877 537.1146,-25.765 527.0389,-22.4894 527.1953,-29.4877"/>
</g>
<!-- src/types.ts&#45;&gt;src/registrar.ts -->
<g id="edge31" class="edge">
<title>src/types.ts&#45;&gt;src/registrar.ts</title>
<path fill="none" stroke="#000000" stroke-width="2" stroke-opacity="0.466667" d="M315.3839,-36.4892C336.3228,-39.9284 365.4975,-44.7202 388.9169,-48.5668"/>
<polygon fill="#000000" fill-opacity="0.466667" stroke="#000000" stroke-width="2" stroke-opacity="0.466667" points="388.4553,-52.0378 398.8904,-50.2049 389.5899,-45.1304 388.4553,-52.0378"/>
</g>
<!-- src/types.ts&#45;&gt;src/service.ts -->
<g id="edge32" class="edge">
<title>src/types.ts&#45;&gt;src/service.ts</title>
<path fill="none" stroke="#000000" stroke-width="2" stroke-opacity="0.466667" d="M310.4114,-40.5901C316.1427,-42.7354 322.3101,-44.995 328.0518,-47 359.3771,-57.9392 366.7142,-62.6776 399.0767,-70 418.9036,-74.4861 441.3614,-77.6035 459.7737,-79.6586"/>
<polygon fill="#000000" fill-opacity="0.466667" stroke="#000000" stroke-width="2" stroke-opacity="0.466667" points="459.507,-83.1499 469.8196,-80.7206 460.2429,-76.1886 459.507,-83.1499"/>
</g>
</g>
</svg>
