<?xml version="1.0" encoding="UTF-8" standalone="no"?>
<!DOCTYPE svg PUBLIC "-//W3C//DTD SVG 1.1//EN"
 "http://www.w3.org/Graphics/SVG/1.1/DTD/svg11.dtd">
<!-- Generated by graphviz version 2.40.1 (20161225.0304)
 -->
<!-- Title: dependency&#45;cruiser output Pages: 1 -->
<svg width="709pt" height="219pt"
 viewBox="0.00 0.00 709.14 219.00" xmlns="http://www.w3.org/2000/svg" xmlns:xlink="http://www.w3.org/1999/xlink">
<g id="graph0" class="graph" transform="scale(1 1) rotate(0) translate(4 215)">
<title>dependency&#45;cruiser output</title>
<polygon fill="#ffffff" stroke="transparent" points="-4,4 -4,-215 705.1362,-215 705.1362,4 -4,4"/>
<g id="clust1" class="cluster">
<title>cluster_src</title>
<path fill="#ffffff" stroke="#000000" stroke-width="2" d="M20,-8C20,-8 681.1362,-8 681.1362,-8 687.1362,-8 693.1362,-14 693.1362,-20 693.1362,-20 693.1362,-191 693.1362,-191 693.1362,-197 687.1362,-203 681.1362,-203 681.1362,-203 20,-203 20,-203 14,-203 8,-197 8,-191 8,-191 8,-20 8,-20 8,-14 14,-8 20,-8"/>
<text text-anchor="middle" x="350.5681" y="-191.8" font-family="Helvetica,sans-Serif" font-weight="bold" font-size="9.00" fill="#000000">src</text>
</g>
<g id="clust2" class="cluster">
<title>cluster_src/services</title>
<path fill="#ffffff" stroke="#000000" stroke-width="2" d="M90,-16C90,-16 241.0518,-16 241.0518,-16 247.0518,-16 253.0518,-22 253.0518,-28 253.0518,-28 253.0518,-142 253.0518,-142 253.0518,-148 247.0518,-154 241.0518,-154 241.0518,-154 90,-154 90,-154 84,-154 78,-148 78,-142 78,-142 78,-28 78,-28 78,-22 84,-16 90,-16"/>
<text text-anchor="middle" x="165.5259" y="-142.8" font-family="Helvetica,sans-Serif" font-weight="bold" font-size="9.00" fill="#000000">services</text>
</g>
<!-- src/barkeep.ts -->
<g id="node1" class="node">
<title>src/barkeep.ts</title>
<g id="a_node1"><a xlink:href="src/barkeep.ts" xlink:title="barkeep.ts">
<path fill="#ddfeff" stroke="#000000" d="M474.9625,-70.5C474.9625,-70.5 428.246,-70.5 428.246,-70.5 425.4127,-70.5 422.5793,-67.6667 422.5793,-64.8333 422.5793,-64.8333 422.5793,-59.1667 422.5793,-59.1667 422.5793,-56.3333 425.4127,-53.5 428.246,-53.5 428.246,-53.5 474.9625,-53.5 474.9625,-53.5 477.7958,-53.5 480.6292,-56.3333 480.6292,-59.1667 480.6292,-59.1667 480.6292,-64.8333 480.6292,-64.8333 480.6292,-67.6667 477.7958,-70.5 474.9625,-70.5"/>
<text text-anchor="middle" x="451.6042" y="-59.3" font-family="Helvetica,sans-Serif" font-size="9.00" fill="#000000">barkeep.ts</text>
</a>
</g>
</g>
<!-- src/error.ts -->
<g id="node2" class="node">
<title>src/error.ts</title>
<g id="a_node2"><a xlink:href="src/error.ts" xlink:title="error.ts">
<path fill="#ddfeff" stroke="#000000" d="M541.95,-98.5C541.95,-98.5 499.2834,-98.5 499.2834,-98.5 496.45,-98.5 493.6167,-95.6667 493.6167,-92.8333 493.6167,-92.8333 493.6167,-87.1667 493.6167,-87.1667 493.6167,-84.3333 496.45,-81.5 499.2834,-81.5 499.2834,-81.5 541.95,-81.5 541.95,-81.5 544.7834,-81.5 547.6167,-84.3333 547.6167,-87.1667 547.6167,-87.1667 547.6167,-92.8333 547.6167,-92.8333 547.6167,-95.6667 544.7834,-98.5 541.95,-98.5"/>
<text text-anchor="middle" x="520.6167" y="-87.3" font-family="Helvetica,sans-Serif" font-size="9.00" fill="#000000">error.ts</text>
</a>
</g>
</g>
<!-- src/barkeep.ts&#45;&gt;src/error.ts -->
<g id="edge1" class="edge">
<title>src/barkeep.ts&#45;&gt;src/error.ts</title>
<path fill="none" stroke="#000000" stroke-width="2" stroke-opacity="0.466667" d="M472.6853,-70.5531C478.1703,-72.7785 484.1916,-75.2215 490.0586,-77.6019"/>
<polygon fill="#000000" fill-opacity="0.466667" stroke="#000000" stroke-width="2" stroke-opacity="0.466667" points="489.0825,-80.9829 499.6648,-81.4993 491.7143,-74.4964 489.0825,-80.9829"/>
</g>
<!-- src/matcher.ts -->
<g id="node5" class="node">
<title>src/matcher.ts</title>
<g id="a_node5"><a xlink:href="src/matcher.ts" xlink:title="matcher.ts">
<path fill="#ddfeff" stroke="#000000" d="M612.2313,-120.5C612.2313,-120.5 566.5216,-120.5 566.5216,-120.5 563.6883,-120.5 560.8549,-117.6667 560.8549,-114.8333 560.8549,-114.8333 560.8549,-109.1667 560.8549,-109.1667 560.8549,-106.3333 563.6883,-103.5 566.5216,-103.5 566.5216,-103.5 612.2313,-103.5 612.2313,-103.5 615.0647,-103.5 617.898,-106.3333 617.898,-109.1667 617.898,-109.1667 617.898,-114.8333 617.898,-114.8333 617.898,-117.6667 615.0647,-120.5 612.2313,-120.5"/>
<text text-anchor="middle" x="589.3765" y="-109.3" font-family="Helvetica,sans-Serif" font-size="9.00" fill="#000000">matcher.ts</text>
</a>
</g>
</g>
<!-- src/barkeep.ts&#45;&gt;src/matcher.ts -->
<g id="edge2" class="edge">
<title>src/barkeep.ts&#45;&gt;src/matcher.ts</title>
<path fill="none" stroke="#000000" stroke-width="2" stroke-opacity="0.466667" d="M480.9459,-62.052C500.6008,-63.083 526.6218,-66.4188 547.6167,-76 557.8488,-80.6695 567.4855,-88.6365 574.9178,-95.8904"/>
<polygon fill="#000000" fill-opacity="0.466667" stroke="#000000" stroke-width="2" stroke-opacity="0.466667" points="572.5851,-98.5139 582.0414,-103.2918 577.6286,-93.6597 572.5851,-98.5139"/>
</g>
<!-- src/utils.ts -->
<g id="node14" class="node">
<title>src/utils.ts</title>
<g id="a_node14"><a xlink:href="src/utils.ts" xlink:title="utils.ts">
<path fill="#ddfeff" stroke="#000000" d="M679.4696,-134.5C679.4696,-134.5 636.8029,-134.5 636.8029,-134.5 633.9696,-134.5 631.1362,-131.6667 631.1362,-128.8333 631.1362,-128.8333 631.1362,-123.1667 631.1362,-123.1667 631.1362,-120.3333 633.9696,-117.5 636.8029,-117.5 636.8029,-117.5 679.4696,-117.5 679.4696,-117.5 682.3029,-117.5 685.1362,-120.3333 685.1362,-123.1667 685.1362,-123.1667 685.1362,-128.8333 685.1362,-128.8333 685.1362,-131.6667 682.3029,-134.5 679.4696,-134.5"/>
<text text-anchor="middle" x="658.1362" y="-123.3" font-family="Helvetica,sans-Serif" font-size="9.00" fill="#000000">utils.ts</text>
</a>
</g>
</g>
<!-- src/barkeep.ts&#45;&gt;src/utils.ts -->
<g id="edge3" class="edge">
<title>src/barkeep.ts&#45;&gt;src/utils.ts</title>
<path fill="none" stroke="#000000" stroke-width="2" stroke-opacity="0.466667" d="M480.9798,-60.4233C485.2188,-60.2477 489.5287,-60.0972 493.6167,-60 550.0471,-58.6576 570.5901,-54.577 618.1362,-85 628.3319,-91.5239 637.8749,-101.1127 645.0809,-109.3771"/>
<polygon fill="#000000" fill-opacity="0.466667" stroke="#000000" stroke-width="2" stroke-opacity="0.466667" points="642.5958,-111.8634 651.6738,-117.3261 647.9838,-107.3946 642.5958,-111.8634"/>
</g>
<!-- src/error.ts&#45;&gt;src/matcher.ts -->
<g id="edge4" class="edge">
<title>src/error.ts&#45;&gt;src/matcher.ts</title>
<path fill="none" stroke="#000000" stroke-width="2" stroke-opacity="0.466667" d="M547.3979,-98.5688C549.1089,-99.1162 550.8464,-99.6721 552.5921,-100.2307"/>
<polygon fill="#000000" fill-opacity="0.466667" stroke="#000000" stroke-width="2" stroke-opacity="0.466667" points="551.9643,-103.7045 562.5552,-103.4184 554.0975,-97.0375 551.9643,-103.7045"/>
</g>
<!-- src/error.ts&#45;&gt;src/utils.ts -->
<g id="edge5" class="edge">
<title>src/error.ts&#45;&gt;src/utils.ts</title>
<path fill="none" stroke="#000000" stroke-width="2" stroke-opacity="0.466667" d="M547.9101,-88.4757C567.9232,-88.2468 595.4461,-89.8128 618.1362,-98 626.1397,-100.8879 634.0164,-105.8157 640.6353,-110.7398"/>
<polygon fill="#000000" fill-opacity="0.466667" stroke="#000000" stroke-width="2" stroke-opacity="0.466667" points="638.7824,-113.74 648.7753,-117.2603 643.1588,-108.2767 638.7824,-113.74"/>
</g>
<!-- src/index.ts -->
<g id="node3" class="node">
<title>src/index.ts</title>
<g id="a_node3"><a xlink:href="src/index.ts" xlink:title="index.ts">
<path fill="#ddfeff" stroke="#000000" d="M64.3333,-171.5C64.3333,-171.5 21.6667,-171.5 21.6667,-171.5 18.8333,-171.5 16,-168.6667 16,-165.8333 16,-165.8333 16,-160.1667 16,-160.1667 16,-157.3333 18.8333,-154.5 21.6667,-154.5 21.6667,-154.5 64.3333,-154.5 64.3333,-154.5 67.1667,-154.5 70,-157.3333 70,-160.1667 70,-160.1667 70,-165.8333 70,-165.8333 70,-168.6667 67.1667,-171.5 64.3333,-171.5"/>
<text text-anchor="middle" x="43" y="-160.3" font-family="Helvetica,sans-Serif" font-size="9.00" fill="#000000">index.ts</text>
</a>
</g>
</g>
<!-- src/services/index.ts -->
<g id="node8" class="node">
<title>src/services/index.ts</title>
<g id="a_node8"><a xlink:href="src/services/index.ts" xlink:title="index.ts">
<path fill="#ddfeff" stroke="#000000" d="M134.3333,-99.5C134.3333,-99.5 91.6667,-99.5 91.6667,-99.5 88.8333,-99.5 86,-96.6667 86,-93.8333 86,-93.8333 86,-88.1667 86,-88.1667 86,-85.3333 88.8333,-82.5 91.6667,-82.5 91.6667,-82.5 134.3333,-82.5 134.3333,-82.5 137.1667,-82.5 140,-85.3333 140,-88.1667 140,-88.1667 140,-93.8333 140,-93.8333 140,-96.6667 137.1667,-99.5 134.3333,-99.5"/>
<text text-anchor="middle" x="113" y="-88.3" font-family="Helvetica,sans-Serif" font-size="9.00" fill="#000000">index.ts</text>
</a>
</g>
</g>
<!-- src/index.ts&#45;&gt;src/services/index.ts -->
<g id="edge6" class="edge">
<title>src/index.ts&#45;&gt;src/services/index.ts</title>
<path fill="none" stroke="#000000" stroke-width="2" stroke-opacity="0.466667" d="M46.071,-154.1196C50.3746,-142.7743 59.2102,-122.9423 78.1817,-105.4283"/>
<polygon fill="#000000" fill-opacity="0.466667" stroke="#000000" stroke-width="2" stroke-opacity="0.466667" points="80.5836,-107.9809 85.9607,-98.8519 76.0644,-102.6352 80.5836,-107.9809"/>
</g>
<!-- src/tavern.ts -->
<g id="node12" class="node">
<title>src/tavern.ts</title>
<g id="a_node12"><a xlink:href="src/tavern.ts" xlink:title="tavern.ts">
<path fill="#ddfeff" stroke="#000000" d="M309.3851,-106.5C309.3851,-106.5 266.7184,-106.5 266.7184,-106.5 263.8851,-106.5 261.0518,-103.6667 261.0518,-100.8333 261.0518,-100.8333 261.0518,-95.1667 261.0518,-95.1667 261.0518,-92.3333 263.8851,-89.5 266.7184,-89.5 266.7184,-89.5 309.3851,-89.5 309.3851,-89.5 312.2184,-89.5 315.0518,-92.3333 315.0518,-95.1667 315.0518,-95.1667 315.0518,-100.8333 315.0518,-100.8333 315.0518,-103.6667 312.2184,-106.5 309.3851,-106.5"/>
<text text-anchor="middle" x="288.0518" y="-95.3" font-family="Helvetica,sans-Serif" font-size="9.00" fill="#000000">tavern.ts</text>
</a>
</g>
</g>
<!-- src/index.ts&#45;&gt;src/tavern.ts -->
<g id="edge7" class="edge">
<title>src/index.ts&#45;&gt;src/tavern.ts</title>
<path fill="none" stroke="#000000" stroke-width="2" stroke-opacity="0.466667" d="M70.1613,-165.3934C119.8061,-169.2573 222.8686,-174.7646 253.0518,-157 268.1013,-148.1424 277.3931,-130.0765 282.5858,-116.2561"/>
<polygon fill="#000000" fill-opacity="0.466667" stroke="#000000" stroke-width="2" stroke-opacity="0.466667" points="285.9165,-117.3321 285.7851,-106.7381 279.2813,-115.1018 285.9165,-117.3321"/>
</g>
<!-- src/types.ts -->
<g id="node13" class="node">
<title>src/types.ts</title>
<g id="a_node13"><a xlink:href="src/types.ts" xlink:title="types.ts">
<path fill="#ddfeff" stroke="#000000" d="M390.1551,-156.5C390.1551,-156.5 347.4884,-156.5 347.4884,-156.5 344.6551,-156.5 341.8218,-153.6667 341.8218,-150.8333 341.8218,-150.8333 341.8218,-145.1667 341.8218,-145.1667 341.8218,-142.3333 344.6551,-139.5 347.4884,-139.5 347.4884,-139.5 390.1551,-139.5 390.1551,-139.5 392.9884,-139.5 395.8218,-142.3333 395.8218,-145.1667 395.8218,-145.1667 395.8218,-150.8333 395.8218,-150.8333 395.8218,-153.6667 392.9884,-156.5 390.1551,-156.5"/>
<text text-anchor="middle" x="368.8218" y="-145.3" font-family="Helvetica,sans-Serif" font-size="9.00" fill="#000000">types.ts</text>
</a>
</g>
</g>
<!-- src/index.ts&#45;&gt;src/types.ts -->
<g id="edge8" class="edge">
<title>src/index.ts&#45;&gt;src/types.ts</title>
<path fill="none" stroke="#000000" stroke-width="2" stroke-opacity="0.466667" d="M70.0294,-169.8093C72.7087,-170.2939 75.3986,-170.7065 78,-171 105.3818,-174.0895 112.4488,-171.4873 140,-171 190.2688,-170.111 203.0214,-171.9702 253.0518,-167 279.5919,-164.3634 309.2709,-159.453 331.9339,-155.2847"/>
<polygon fill="#000000" fill-opacity="0.466667" stroke="#000000" stroke-width="2" stroke-opacity="0.466667" points="332.6323,-158.7148 341.8164,-153.4326 331.3428,-151.8346 332.6323,-158.7148"/>
</g>
<!-- src/local_barkeep.ts -->
<g id="node4" class="node">
<title>src/local_barkeep.ts</title>
<g id="a_node4"><a xlink:href="src/local_barkeep.ts" xlink:title="local_barkeep.ts">
<path fill="#ddfeff" stroke="#000000" d="M403.6964,-84.5C403.6964,-84.5 333.9471,-84.5 333.9471,-84.5 331.1138,-84.5 328.2804,-81.6667 328.2804,-78.8333 328.2804,-78.8333 328.2804,-73.1667 328.2804,-73.1667 328.2804,-70.3333 331.1138,-67.5 333.9471,-67.5 333.9471,-67.5 403.6964,-67.5 403.6964,-67.5 406.5298,-67.5 409.3631,-70.3333 409.3631,-73.1667 409.3631,-73.1667 409.3631,-78.8333 409.3631,-78.8333 409.3631,-81.6667 406.5298,-84.5 403.6964,-84.5"/>
<text text-anchor="middle" x="368.8218" y="-73.3" font-family="Helvetica,sans-Serif" font-size="9.00" fill="#000000">local_barkeep.ts</text>
</a>
</g>
</g>
<!-- src/local_barkeep.ts&#45;&gt;src/barkeep.ts -->
<g id="edge9" class="edge">
<title>src/local_barkeep.ts&#45;&gt;src/barkeep.ts</title>
<path fill="none" stroke="#000000" stroke-width="2" stroke-opacity="0.466667" d="M409.728,-69.082C410.5223,-68.9477 411.3169,-68.8133 412.1105,-68.6791"/>
<polygon fill="#000000" fill-opacity="0.466667" stroke="#000000" stroke-width="2" stroke-opacity="0.466667" points="413.0036,-72.0779 422.2799,-66.9593 411.8362,-65.1759 413.0036,-72.0779"/>
</g>
<!-- src/local_barkeep.ts&#45;&gt;src/error.ts -->
<g id="edge10" class="edge">
<title>src/local_barkeep.ts&#45;&gt;src/error.ts</title>
<path fill="none" stroke="#000000" stroke-width="2" stroke-opacity="0.466667" d="M409.5,-79.7517C432.3955,-81.8634 460.7851,-84.4818 483.1372,-86.5433"/>
<polygon fill="#000000" fill-opacity="0.466667" stroke="#000000" stroke-width="2" stroke-opacity="0.466667" points="482.9777,-90.0433 493.2569,-87.4766 483.6206,-83.0729 482.9777,-90.0433"/>
</g>
<!-- src/matcher.ts&#45;&gt;src/utils.ts -->
<g id="edge11" class="edge">
<title>src/matcher.ts&#45;&gt;src/utils.ts</title>
<path fill="none" stroke="#000000" stroke-width="2" stroke-opacity="0.466667" d="M618.1384,-117.8561C619.0722,-118.0463 620.0117,-118.2376 620.954,-118.4294"/>
<polygon fill="#000000" fill-opacity="0.466667" stroke="#000000" stroke-width="2" stroke-opacity="0.466667" points="620.5311,-121.9151 631.0284,-120.4806 621.9278,-115.0558 620.5311,-121.9151"/>
</g>
<!-- src/service.ts -->
<g id="node6" class="node">
<title>src/service.ts</title>
<g id="a_node6"><a xlink:href="src/service.ts" xlink:title="service.ts">
<path fill="#ddfeff" stroke="#000000" d="M472.9459,-142.5C472.9459,-142.5 430.2626,-142.5 430.2626,-142.5 427.4293,-142.5 424.5959,-139.6667 424.5959,-136.8333 424.5959,-136.8333 424.5959,-131.1667 424.5959,-131.1667 424.5959,-128.3333 427.4293,-125.5 430.2626,-125.5 430.2626,-125.5 472.9459,-125.5 472.9459,-125.5 475.7792,-125.5 478.6125,-128.3333 478.6125,-131.1667 478.6125,-131.1667 478.6125,-136.8333 478.6125,-136.8333 478.6125,-139.6667 475.7792,-142.5 472.9459,-142.5"/>
<text text-anchor="middle" x="451.6042" y="-131.3" font-family="Helvetica,sans-Serif" font-size="9.00" fill="#000000">service.ts</text>
</a>
</g>
</g>
<!-- src/service.ts&#45;&gt;src/error.ts -->
<g id="edge12" class="edge">
<title>src/service.ts&#45;&gt;src/error.ts</title>
<path fill="none" stroke="#000000" stroke-width="2" stroke-opacity="0.466667" d="M465.2389,-125.307C474.6911,-119.2806 487.4902,-111.1203 498.4026,-104.1629"/>
<polygon fill="#000000" fill-opacity="0.466667" stroke="#000000" stroke-width="2" stroke-opacity="0.466667" points="500.46,-107.0022 507.0104,-98.6749 496.6967,-101.0997 500.46,-107.0022"/>
</g>
<!-- src/service.ts&#45;&gt;src/matcher.ts -->
<g id="edge13" class="edge">
<title>src/service.ts&#45;&gt;src/matcher.ts</title>
<path fill="none" stroke="#000000" stroke-width="2" stroke-opacity="0.466667" d="M478.8236,-129.6535C499.3611,-126.374 527.8133,-121.8306 550.71,-118.1744"/>
<polygon fill="#000000" fill-opacity="0.466667" stroke="#000000" stroke-width="2" stroke-opacity="0.466667" points="551.4678,-121.5978 560.7908,-116.5647 550.3639,-114.6854 551.4678,-121.5978"/>
</g>
<!-- src/service.ts&#45;&gt;src/utils.ts -->
<g id="edge14" class="edge">
<title>src/service.ts&#45;&gt;src/utils.ts</title>
<path fill="none" stroke="#000000" stroke-width="2" stroke-opacity="0.466667" d="M479.0301,-132.9377C515.4699,-131.5262 579.9894,-129.027 620.8323,-127.445"/>
<polygon fill="#000000" fill-opacity="0.466667" stroke="#000000" stroke-width="2" stroke-opacity="0.466667" points="621.0689,-130.9385 630.9259,-127.054 620.7979,-123.9438 621.0689,-130.9385"/>
</g>
<!-- src/services/express_adapter.ts -->
<g id="node7" class="node">
<title>src/services/express_adapter.ts</title>
<g id="a_node7"><a xlink:href="src/services/express_adapter.ts" xlink:title="express_adapter.ts">
<path fill="#ddfeff" stroke="#000000" d="M239.411,-41.5C239.411,-41.5 158.6408,-41.5 158.6408,-41.5 155.8074,-41.5 152.9741,-38.6667 152.9741,-35.8333 152.9741,-35.8333 152.9741,-30.1667 152.9741,-30.1667 152.9741,-27.3333 155.8074,-24.5 158.6408,-24.5 158.6408,-24.5 239.411,-24.5 239.411,-24.5 242.2443,-24.5 245.0777,-27.3333 245.0777,-30.1667 245.0777,-30.1667 245.0777,-35.8333 245.0777,-35.8333 245.0777,-38.6667 242.2443,-41.5 239.411,-41.5"/>
<text text-anchor="middle" x="199.0259" y="-30.3" font-family="Helvetica,sans-Serif" font-size="9.00" fill="#000000">express_adapter.ts</text>
</a>
</g>
</g>
<!-- src/services/express_adapter.ts&#45;&gt;src/tavern.ts -->
<g id="edge15" class="edge">
<title>src/services/express_adapter.ts&#45;&gt;src/tavern.ts</title>
<path fill="none" stroke="#000000" stroke-width="2" stroke-opacity="0.466667" d="M241.0647,-41.5024C245.309,-43.2745 249.3956,-45.4149 253.0518,-48 264.5775,-56.1494 273.5857,-69.3572 279.5752,-80.1519"/>
<polygon fill="#000000" fill-opacity="0.466667" stroke="#000000" stroke-width="2" stroke-opacity="0.466667" points="276.5279,-81.8794 284.2129,-89.1727 282.7533,-78.6788 276.5279,-81.8794"/>
</g>
<!-- src/services/index.ts&#45;&gt;src/services/express_adapter.ts -->
<g id="edge16" class="edge">
<title>src/services/index.ts&#45;&gt;src/services/express_adapter.ts</title>
<path fill="none" stroke="#000000" stroke-width="2" stroke-opacity="0.466667" d="M119.0661,-82.1704C126.1511,-72.485 138.7351,-57.1089 153,-48 154.1156,-47.2876 155.2682,-46.6061 156.4489,-45.9544"/>
<polygon fill="#000000" fill-opacity="0.466667" stroke="#000000" stroke-width="2" stroke-opacity="0.466667" points="158.3366,-48.9351 165.9068,-41.5228 155.3665,-42.5964 158.3366,-48.9351"/>
</g>
<!-- src/services/logger.ts -->
<g id="node9" class="node">
<title>src/services/logger.ts</title>
<g id="a_node9"><a xlink:href="src/services/logger.ts" xlink:title="logger.ts">
<path fill="#ddfeff" stroke="#000000" d="M220.3592,-70.5C220.3592,-70.5 177.6925,-70.5 177.6925,-70.5 174.8592,-70.5 172.0259,-67.6667 172.0259,-64.8333 172.0259,-64.8333 172.0259,-59.1667 172.0259,-59.1667 172.0259,-56.3333 174.8592,-53.5 177.6925,-53.5 177.6925,-53.5 220.3592,-53.5 220.3592,-53.5 223.1925,-53.5 226.0259,-56.3333 226.0259,-59.1667 226.0259,-59.1667 226.0259,-64.8333 226.0259,-64.8333 226.0259,-67.6667 223.1925,-70.5 220.3592,-70.5"/>
<text text-anchor="middle" x="199.0259" y="-59.3" font-family="Helvetica,sans-Serif" font-size="9.00" fill="#000000">logger.ts</text>
</a>
</g>
</g>
<!-- src/services/index.ts&#45;&gt;src/services/logger.ts -->
<g id="edge17" class="edge">
<title>src/services/index.ts&#45;&gt;src/services/logger.ts</title>
<path fill="none" stroke="#000000" stroke-width="2" stroke-opacity="0.466667" d="M137.0843,-82.4759C142.3236,-80.648 147.842,-78.7429 153,-77 156.1052,-75.9507 159.3324,-74.873 162.5725,-73.7999"/>
<polygon fill="#000000" fill-opacity="0.466667" stroke="#000000" stroke-width="2" stroke-opacity="0.466667" points="163.8154,-77.0757 172.222,-70.6274 161.6291,-70.4259 163.8154,-77.0757"/>
</g>
<!-- src/services/parser.ts -->
<g id="node10" class="node">
<title>src/services/parser.ts</title>
<g id="a_node10"><a xlink:href="src/services/parser.ts" xlink:title="parser.ts">
<path fill="#ddfeff" stroke="#000000" d="M220.3592,-99.5C220.3592,-99.5 177.6925,-99.5 177.6925,-99.5 174.8592,-99.5 172.0259,-96.6667 172.0259,-93.8333 172.0259,-93.8333 172.0259,-88.1667 172.0259,-88.1667 172.0259,-85.3333 174.8592,-82.5 177.6925,-82.5 177.6925,-82.5 220.3592,-82.5 220.3592,-82.5 223.1925,-82.5 226.0259,-85.3333 226.0259,-88.1667 226.0259,-88.1667 226.0259,-93.8333 226.0259,-93.8333 226.0259,-96.6667 223.1925,-99.5 220.3592,-99.5"/>
<text text-anchor="middle" x="199.0259" y="-88.3" font-family="Helvetica,sans-Serif" font-size="9.00" fill="#000000">parser.ts</text>
</a>
</g>
</g>
<!-- src/services/index.ts&#45;&gt;src/services/parser.ts -->
<g id="edge18" class="edge">
<title>src/services/index.ts&#45;&gt;src/services/parser.ts</title>
<path fill="none" stroke="#000000" stroke-width="2" stroke-opacity="0.466667" d="M140.2191,-91C147.1113,-91 154.6318,-91 161.9214,-91"/>
<polygon fill="#000000" fill-opacity="0.466667" stroke="#000000" stroke-width="2" stroke-opacity="0.466667" points="161.9839,-94.5001 171.9838,-91 161.9838,-87.5001 161.9839,-94.5001"/>
</g>
<!-- src/services/request_handler.ts -->
<g id="node11" class="node">
<title>src/services/request_handler.ts</title>
<g id="a_node11"><a xlink:href="src/services/request_handler.ts" xlink:title="request_handler.ts">
<path fill="#ddfeff" stroke="#000000" d="M238.4159,-128.5C238.4159,-128.5 159.6359,-128.5 159.6359,-128.5 156.8026,-128.5 153.9692,-125.6667 153.9692,-122.8333 153.9692,-122.8333 153.9692,-117.1667 153.9692,-117.1667 153.9692,-114.3333 156.8026,-111.5 159.6359,-111.5 159.6359,-111.5 238.4159,-111.5 238.4159,-111.5 241.2492,-111.5 244.0825,-114.3333 244.0825,-117.1667 244.0825,-117.1667 244.0825,-122.8333 244.0825,-122.8333 244.0825,-125.6667 241.2492,-128.5 238.4159,-128.5"/>
<text text-anchor="middle" x="199.0259" y="-117.3" font-family="Helvetica,sans-Serif" font-size="9.00" fill="#000000">request_handler.ts</text>
</a>
</g>
</g>
<!-- src/services/index.ts&#45;&gt;src/services/request_handler.ts -->
<g id="edge19" class="edge">
<title>src/services/index.ts&#45;&gt;src/services/request_handler.ts</title>
<path fill="none" stroke="#000000" stroke-width="2" stroke-opacity="0.466667" d="M134.9165,-99.5047C140.7655,-101.6958 147.1002,-103.9987 153,-106 155.269,-106.7697 157.6075,-107.5426 159.9713,-108.3085"/>
<polygon fill="#000000" fill-opacity="0.466667" stroke="#000000" stroke-width="2" stroke-opacity="0.466667" points="159.129,-111.7129 169.7189,-111.3903 161.2392,-105.0386 159.129,-111.7129"/>
</g>
<!-- src/services/logger.ts&#45;&gt;src/tavern.ts -->
<g id="edge20" class="edge">
<title>src/services/logger.ts&#45;&gt;src/tavern.ts</title>
<path fill="none" stroke="#000000" stroke-width="2" stroke-opacity="0.466667" d="M226.1713,-68.0063C234.9239,-70.3446 244.5545,-73.351 253.0518,-77 257.691,-78.9923 262.459,-81.5023 266.9248,-84.0875"/>
<polygon fill="#000000" fill-opacity="0.466667" stroke="#000000" stroke-width="2" stroke-opacity="0.466667" points="265.1732,-87.1189 275.5288,-89.3578 268.8296,-81.1498 265.1732,-87.1189"/>
</g>
<!-- src/services/parser.ts&#45;&gt;src/tavern.ts -->
<g id="edge21" class="edge">
<title>src/services/parser.ts&#45;&gt;src/tavern.ts</title>
<path fill="none" stroke="#000000" stroke-width="2" stroke-opacity="0.466667" d="M226.2203,-93.1383C233.9864,-93.7489 242.5857,-94.4251 250.8405,-95.0741"/>
<polygon fill="#000000" fill-opacity="0.466667" stroke="#000000" stroke-width="2" stroke-opacity="0.466667" points="250.7802,-98.5801 261.0239,-95.8748 251.329,-91.6016 250.7802,-98.5801"/>
</g>
<!-- src/services/request_handler.ts&#45;&gt;src/tavern.ts -->
<g id="edge22" class="edge">
<title>src/services/request_handler.ts&#45;&gt;src/tavern.ts</title>
<path fill="none" stroke="#000000" stroke-width="2" stroke-opacity="0.466667" d="M233.4456,-111.4942C239.1337,-110.0886 245.0538,-108.6256 250.8074,-107.2038"/>
<polygon fill="#000000" fill-opacity="0.466667" stroke="#000000" stroke-width="2" stroke-opacity="0.466667" points="252.0297,-110.5071 260.898,-104.7102 250.3504,-103.7115 252.0297,-110.5071"/>
</g>
<!-- src/tavern.ts&#45;&gt;src/barkeep.ts -->
<g id="edge23" class="edge">
<title>src/tavern.ts&#45;&gt;src/barkeep.ts</title>
<path fill="none" stroke="#000000" stroke-width="2" stroke-opacity="0.466667" d="M294.5549,-89.1965C301.6565,-80.3984 313.9211,-67.4224 328.0518,-62 354.8619,-51.712 387.42,-52.1842 412.3823,-54.976"/>
<polygon fill="#000000" fill-opacity="0.466667" stroke="#000000" stroke-width="2" stroke-opacity="0.466667" points="412.2111,-58.4828 422.5765,-56.29 413.106,-51.5403 412.2111,-58.4828"/>
</g>
<!-- src/tavern.ts&#45;&gt;src/error.ts -->
<g id="edge24" class="edge">
<title>src/tavern.ts&#45;&gt;src/error.ts</title>
<path fill="none" stroke="#000000" stroke-width="2" stroke-opacity="0.466667" d="M315.1851,-97.0666C356.7356,-95.6373 436.2389,-92.9025 483.2246,-91.2863"/>
<polygon fill="#000000" fill-opacity="0.466667" stroke="#000000" stroke-width="2" stroke-opacity="0.466667" points="483.423,-94.7816 493.2967,-90.9398 483.1823,-87.7857 483.423,-94.7816"/>
</g>
<!-- src/tavern.ts&#45;&gt;src/local_barkeep.ts -->
<g id="edge25" class="edge">
<title>src/tavern.ts&#45;&gt;src/local_barkeep.ts</title>
<path fill="none" stroke="#000000" stroke-width="2" stroke-opacity="0.466667" d="M315.3968,-90.5518C319.4127,-89.458 323.6214,-88.3116 327.8387,-87.1629"/>
<polygon fill="#000000" fill-opacity="0.466667" stroke="#000000" stroke-width="2" stroke-opacity="0.466667" points="328.8798,-90.5069 337.6084,-84.5018 327.0401,-83.753 328.8798,-90.5069"/>
</g>
<!-- src/tavern.ts&#45;&gt;src/matcher.ts -->
<g id="edge26" class="edge">
<title>src/tavern.ts&#45;&gt;src/matcher.ts</title>
<path fill="none" stroke="#000000" stroke-width="2" stroke-opacity="0.466667" d="M315.0575,-99.2547C368.5867,-101.7418 488.326,-107.305 550.3958,-110.1889"/>
<polygon fill="#000000" fill-opacity="0.466667" stroke="#000000" stroke-width="2" stroke-opacity="0.466667" points="550.4136,-113.6934 560.5653,-110.6614 550.7385,-106.701 550.4136,-113.6934"/>
</g>
<!-- src/tavern.ts&#45;&gt;src/service.ts -->
<g id="edge27" class="edge">
<title>src/tavern.ts&#45;&gt;src/service.ts</title>
<path fill="none" stroke="#000000" stroke-width="2" stroke-opacity="0.466667" d="M304.3959,-106.5975C311.4939,-110.0016 320.0101,-113.6548 328.0518,-116 356.2749,-124.2307 389.2714,-128.7925 414.0621,-131.2627"/>
<polygon fill="#000000" fill-opacity="0.466667" stroke="#000000" stroke-width="2" stroke-opacity="0.466667" points="413.8659,-134.7595 424.1464,-132.198 414.5124,-127.7894 413.8659,-134.7595"/>
</g>
<!-- src/tavern.ts&#45;&gt;src/utils.ts -->
<g id="edge28" class="edge">
<title>src/tavern.ts&#45;&gt;src/utils.ts</title>
<path fill="none" stroke="#000000" stroke-width="2" stroke-opacity="0.466667" d="M290.4909,-106.6208C295.1143,-121.1653 306.6585,-150.2382 328.0518,-163 375.2861,-191.177 396.604,-170 451.6042,-170 451.6042,-170 451.6042,-170 520.6167,-170 561.4723,-170 606.0471,-152.1653 633.0452,-139.2052"/>
<polygon fill="#000000" fill-opacity="0.466667" stroke="#000000" stroke-width="2" stroke-opacity="0.466667" points="634.7489,-142.2672 642.1572,-134.693 631.6425,-135.9942 634.7489,-142.2672"/>
</g>
<!-- src/types.ts&#45;&gt;src/barkeep.ts -->
<g id="edge29" class="edge">
<title>src/types.ts&#45;&gt;src/barkeep.ts</title>
<path fill="none" stroke="#000000" stroke-width="2" stroke-opacity="0.466667" d="M377.0619,-139.4396C390.8222,-125.1445 418.6893,-96.1943 436.1795,-78.0243"/>
<polygon fill="#000000" fill-opacity="0.466667" stroke="#000000" stroke-width="2" stroke-opacity="0.466667" points="438.984,-80.1576 443.3974,-70.5258 433.9408,-75.3031 438.984,-80.1576"/>
</g>
<!-- src/types.ts&#45;&gt;src/service.ts -->
<g id="edge30" class="edge">
<title>src/types.ts&#45;&gt;src/service.ts</title>
<path fill="none" stroke="#000000" stroke-width="2" stroke-opacity="0.466667" d="M395.9279,-143.4159C401.7882,-142.4248 408.084,-141.36 414.2586,-140.3158"/>
<polygon fill="#000000" fill-opacity="0.466667" stroke="#000000" stroke-width="2" stroke-opacity="0.466667" points="415.1609,-143.713 424.4373,-138.5944 413.9936,-136.811 415.1609,-143.713"/>
</g>
<!-- src/types.ts&#45;&gt;src/utils.ts -->
<g id="edge31" class="edge">
<title>src/types.ts&#45;&gt;src/utils.ts</title>
<path fill="none" stroke="#000000" stroke-width="2" stroke-opacity="0.466667" d="M395.8988,-148.6018C404.4387,-148.7652 413.9091,-148.9193 422.5918,-149 448.3795,-149.2398 454.8766,-150.5849 480.6167,-149 542.0853,-145.2151 557.1194,-140.3463 618.1362,-132 619.0494,-131.8751 619.974,-131.7472 620.9066,-131.617"/>
<polygon fill="#000000" fill-opacity="0.466667" stroke="#000000" stroke-width="2" stroke-opacity="0.466667" points="621.6382,-135.0479 631.0389,-130.1616 620.6429,-128.1191 621.6382,-135.0479"/>
</g>
</g>
</svg>
